<?xml version="1.0" encoding="utf-8"?>
<!-- Generator: Adobe Illustrator 21.1.0, SVG Export Plug-In . SVG Version: 6.00 Build 0)  -->
<svg version="1.1" id="Capa_1" xmlns="http://www.w3.org/2000/svg" xmlns:xlink="http://www.w3.org/1999/xlink" x="0px" y="0px"
	 viewBox="0 0 512 512" style="enable-background:new 0 0 512 512;" xml:space="preserve">
<style type="text/css">
	.st0{fill:#6B6B6B;}
</style>
<g>
	<path class="st0" d="M256,221.9c32.9,0,59.7-26.8,59.7-59.7s-26.8-59.7-59.7-59.7s-59.7,26.8-59.7,59.7S223.1,221.9,256,221.9z
		 M256,119.5c23.5,0,42.7,19.1,42.7,42.7s-19.1,42.7-42.7,42.7c-23.5,0-42.7-19.1-42.7-42.7S232.5,119.5,256,119.5z"/>
	<path class="st0" d="M254.5,467.3l130.9-189.1c49.1-65.5,42-173.1-15.2-230.2C339.3,17,298.2,0,254.5,0s-84.8,17-115.7,47.9
		c-57.2,57.2-64.3,164.8-15.4,230L254.5,467.3z M160.9,76.3c25-25,58.2-38.8,93.6-38.8S323,51.3,348,76.3
		c46.6,46.6,52.3,134.3,12.1,187.9L254.5,416.8L148.7,264C108.6,210.6,114.3,122.9,160.9,76.3z"/>
	<path class="st0" d="M359.4,367c-4.7-0.6-8.9,2.8-9.5,7.5c-0.5,4.7,2.8,8.9,7.5,9.5c89.7,10.6,109.5,34,109.5,50.5
		c0,23.2-62.9,43.5-210.9,43.5S46.1,461.6,46.1,438.5c0-16.5,18.8-44,108.5-54.5c4.7-0.5,8-4.8,7.5-9.5c-0.6-4.7-4.8-8.1-9.5-7.5
		C62.8,377.6,0,407.4,0,439.5c0,36,87.9,72.5,256,72.5s256-36.5,256-72.5C512,407.4,449.2,377.6,359.4,367z"/>
</g>
</svg>
