<?xml version="1.0" encoding="utf-8"?>
<!-- Generator: Adobe Illustrator 21.1.0, SVG Export Plug-In . SVG Version: 6.00 Build 0)  -->
<svg version="1.1" id="Layer_2" xmlns="http://www.w3.org/2000/svg" xmlns:xlink="http://www.w3.org/1999/xlink" x="0px" y="0px"
	 viewBox="0 0 117 116" style="enable-background:new 0 0 117 116;" xml:space="preserve">
<style type="text/css">
	.st0{fill:#878787;}
</style>
<g>
	<path class="st0" d="M23.9,20.3c4.7-3,10-2.7,15.3-1.4c6.8,1.7,12.7,3.7,19.9,2.9c10.7-1.2,25.6-11.2,35.1-1.8v11.5l21.3-15.6
		L94.2,0.4v12.3c-2.9-1.3-6.2-2.1-9.1-2.4c-8.3-0.9-15.1,3-22.8,4.9c-9.6,2.4-16.9-1.6-26.1-3c-5.3-0.8-11.2,0.1-15.6,3
		C17,17.4,20.3,22.6,23.9,20.3z"/>
	<path class="st0" d="M94.2,68.7c-2.9-1.3-6.2-2.1-9.1-2.4c-8.3-0.9-15.1,3-22.8,4.9c-9.6,2.4-16.9-1.6-26.1-3
		c-5.3-0.8-11.2,0.1-15.6,3c-3.5,2.2-0.1,7.4,3.4,5.2c4.7-3,10-2.7,15.3-1.4c6.8,1.7,12.7,3.7,19.9,2.9c10.7-1.2,25.6-11.2,35.1-1.8
		v11.5l21.3-15.6L94.2,56.4V68.7z"/>
	<path class="st0" d="M5.9,48.3c4.7-3,10-2.7,15.3-1.4c6.8,1.7,12.7,3.7,19.9,2.9c10.7-1.2,25.6-11.2,35.1-1.8v11.5l21.3-15.6
		L76.2,28.4v12.3c-2.9-1.3-6.2-2.1-9.1-2.4c-8.3-0.9-15.1,3-22.8,4.9c-9.6,2.4-16.9-1.6-26.1-3c-5.3-0.8-11.2,0.1-15.6,3
		C-1,45.4,2.3,50.6,5.9,48.3z"/>
	<path class="st0" d="M76.2,96.7c-2.9-1.3-6.2-2.1-9.1-2.4c-8.3-0.9-15.1,3-22.8,4.9c-9.6,2.4-16.9-1.6-26.1-3
		c-5.3-0.8-11.2,0.1-15.6,3c-3.5,2.2-0.1,7.4,3.4,5.2c4.7-3,10-2.7,15.3-1.4c6.8,1.7,12.7,3.7,19.9,2.9c10.7-1.2,25.6-11.2,35.1-1.8
		v11.5l21.3-15.6L76.2,84.4V96.7z"/>
</g>
</svg>
